<svg xmlns="http://www.w3.org/2000/svg" xmlns:xlink="http://www.w3.org/1999/xlink" width="500" zoomAndPan="magnify" viewBox="0 0 375 374.999991" height="500" preserveAspectRatio="xMidYMid meet" version="1.0"><defs><g/><clipPath id="9023bc8957"><rect x="0" width="307" y="0" height="375"/></clipPath></defs><g transform="matrix(1, 0, 0, 1, 20, 0)"><g clip-path="url(#9023bc8957)"><g fill="#8b5cf6" fill-opacity="1"><g transform="translate(1.650005, 298.378639)"><g><path d="M 105.796875 4.53125 C 94.609375 4.53125 83.164062 3.207031 71.46875 0.5625 C 59.78125 -2.070312 48.4375 -6 37.4375 -11.21875 C 26.4375 -16.4375 16.285156 -22.753906 6.984375 -30.171875 L 37.34375 -73.734375 C 43 -67.703125 49.535156 -62.203125 56.953125 -57.234375 C 64.367188 -52.273438 72.257812 -48.347656 80.625 -45.453125 C 88.988281 -42.554688 97.445312 -41.109375 106 -41.109375 C 111.78125 -41.109375 117.054688 -41.894531 121.828125 -43.46875 C 126.609375 -45.039062 130.410156 -47.492188 133.234375 -50.828125 C 136.066406 -54.160156 137.484375 -58.40625 137.484375 -63.5625 C 137.484375 -69.84375 135.0625 -74.425781 130.21875 -77.3125 C 125.382812 -80.207031 118.125 -82.914062 108.4375 -85.4375 L 81.09375 -92.609375 C 68.144531 -96.117188 57.050781 -100.578125 47.8125 -105.984375 C 38.570312 -111.398438 31.5 -118.285156 26.59375 -126.640625 C 21.6875 -135.003906 19.234375 -145.285156 19.234375 -157.484375 C 19.234375 -173.066406 22.972656 -185.953125 30.453125 -196.140625 C 37.941406 -206.328125 48.316406 -213.929688 61.578125 -218.953125 C 74.835938 -223.984375 90.144531 -226.5 107.5 -226.5 C 120.957031 -226.5 133.09375 -224.988281 143.90625 -221.96875 C 154.71875 -218.957031 164.554688 -214.96875 173.421875 -210 C 182.285156 -205.039062 190.363281 -199.539062 197.65625 -193.5 L 169.359375 -154.65625 C 159.554688 -164.457031 149.210938 -171.78125 138.328125 -176.625 C 127.453125 -181.46875 117.050781 -183.890625 107.125 -183.890625 C 98.945312 -183.890625 92.34375 -182.222656 87.3125 -178.890625 C 82.289062 -175.554688 79.78125 -170.867188 79.78125 -164.828125 C 79.78125 -160.054688 81.570312 -156.347656 85.15625 -153.703125 C 88.738281 -151.066406 93.859375 -148.867188 100.515625 -147.109375 L 137.296875 -137.109375 C 144.835938 -135.097656 152.347656 -132.488281 159.828125 -129.28125 C 167.316406 -126.070312 174.203125 -121.890625 180.484375 -116.734375 C 186.773438 -111.585938 191.804688 -105.019531 195.578125 -97.03125 C 199.347656 -89.050781 201.234375 -79.148438 201.234375 -67.328125 C 201.234375 -44.566406 193.15625 -26.898438 177 -14.328125 C 160.84375 -1.753906 137.109375 4.53125 105.796875 4.53125 Z M 105.796875 4.53125 "/></g></g></g><g fill="#8b5cf6" fill-opacity="1"><g transform="translate(187.730411, 298.378639)"><g><path d="M 38.84375 0 L 38.84375 -68.65625 L 106.9375 -68.65625 L 106.9375 0 Z M 38.84375 0 "/></g></g></g></g></g></svg>